<?xml version="1.0" encoding="utf-8"?>
<!-- Generator: Adobe Illustrator 16.0.0, SVG Export Plug-In . SVG Version: 6.00 Build 0)  -->
<!DOCTYPE svg PUBLIC "-//W3C//DTD SVG 1.1//EN" "http://www.w3.org/Graphics/SVG/1.1/DTD/svg11.dtd">
<svg version="1.1" id="Layer_1" xmlns="http://www.w3.org/2000/svg" xmlns:xlink="http://www.w3.org/1999/xlink" x="0px" y="0px"
	 width="429.9px" height="562.3px" viewBox="0 0 429.9 562.3" enable-background="new 0 0 429.9 562.3" xml:space="preserve">
<g>
	<path fill-rule="evenodd" clip-rule="evenodd" d="M169.7,143c-0.3-4.1-0.6-9.5-1.1-15.8c33,0,64.7,0,98.1,0
		c-1,6.8-1.7,12.4-2.3,16.1c80.7,48.2,134,116.1,156.4,207.1c8.3,33.8,12,68.3,6.2,103.3c-6.5,39.1-26.6,69.4-63.4,83.4
		c-28.5,10.9-59.2,18.5-89.5,21.4c-62.1,5.9-124.6,6.4-185.9-8.9c-61-15.2-86.6-48.1-88.2-110.8C-2.6,329.2,42.8,241.9,124.6,172
		C137.8,160.7,153.9,153,169.7,143z M262.7,304.8c2.5-7.5,5.4-16.2,8.8-26.5c-13.3-4-24.9-7.5-37.1-11.1c-0.5-6.2-1-12.8-1.6-19.5
		c-9.1,0-17.7,0-26.2,0c-1.5,21.4-1.5,21.5-10.6,25.1c-19.6,7.7-31,21.6-31.8,42.9c-0.8,21.8,11.1,35.6,30,44
		c10.8,4.8,22.2,8.5,33,13.3c8.6,3.8,16,9.3,14,20.5c-2.1,11.5-11.4,13.8-20.6,13.1c-16.3-1.1-32.5-3.8-50.1-6.1
		c-2.4,6.9-5.4,15.7-9,26.1c7.7,2.9,14.6,6,21.7,8c7.2,2.1,14.6,3.1,22.1,4.6c0.5,7.3,1,13.8,1.6,20.6c9.1,0,17.4,0,24.7,0
		c6-7.9-4.2-20.2,10.5-24.5c26.3-7.6,36-19.6,37.3-42.1c1.4-24.3-7.7-38.7-32.3-49.8c-11.7-5.3-24.3-8.8-35.2-15.2
		c-4.9-2.9-9.5-11.3-9-16.8c0.4-4,9.1-10.3,14.2-10.4C231.5,300.8,245.9,303.2,262.7,304.8z"/>
	<path fill-rule="evenodd" clip-rule="evenodd" d="M296.6,6.9c-11.7,39.4-22.1,74.8-33.2,110c-1,3.1-6.5,6.7-10,6.8
		c-25.2,0.6-50.4,0.5-75.5,0.1c-3,0-7.7-2.5-8.5-4.8c-12.3-37.2-24.1-74.7-36.2-112.5c16.7-8.4,32.7-7.2,48.5-4.2
		c9.2,1.8,18.6,4.5,27.1,8.5C237.5,24.5,265.6,24.3,296.6,6.9z"/>
</g>
</svg>
